PathFileType	4	(X/Y/Z)	 s07c0202.trc
DataRate	CameraRate	NumFrames	NumMarkers	Units	OrigDataRate	OrigDataStartFrame	OrigNumFrames
200	200	4	48	mm	200	1501	2000
Frame#	Time	racr			lacr			c7			jug			rlel			rdr			llel			ldr			s2			lic			ric			lasi			rasi			rpsi			lpsi			rgt			lgt			rth1			rth2			rth3			rth4			rlfc			rmfc			rsh1			rsh2			rsh3			rsh4			rlmal			rcal			rtoe			rmt5			lth1			lth2			lth4			lth3			llfc			lmfc			lsh1			lsh2			lsh3			lsh4			llmal			lcal			ltoe			lmt5			SBIKE			LBIKE			RBIKE			
		X1	Y1	Z1	X2	Y2	Z2	X3	Y3	Z3	X4	Y4	Z4	X5	Y5	Z5	X6	Y6	Z6	X7	Y7	Z7	X8	Y8	Z8	X9	Y9	Z9	X10	Y10	Z10	X11	Y11	Z11	X12	Y12	Z12	X13	Y13	Z13	X14	Y14	Z14	X15	Y15	Z15	X16	Y16	Z16	X17	Y17	Z17	X18	Y18	Z18	X19	Y19	Z19	X20	Y20	Z20	X21	Y21	Z21	X22	Y22	Z22	X23	Y23	Z23	X24	Y24	Z24	X25	Y25	Z25	X26	Y26	Z26	X27	Y27	Z27	X28	Y28	Z28	X29	Y29	Z29	X30	Y30	Z30	X31	Y31	Z31	X32	Y32	Z32	X33	Y33	Z33	X34	Y34	Z34	X35	Y35	Z35	X36	Y36	Z36	X37	Y37	Z37	X38	Y38	Z38	X39	Y39	Z39	X40	Y40	Z40	X41	Y41	Z41	X42	Y42	Z42	X43	Y43	Z43	X44	Y44	Z44	X45	Y45	Z45	X46	Y46	Z46	X47	Y47	Z47	X48	Y48	Z48	
1501	7.5050	504.133424	1396.734745	-99.875157	484.570957	1407.195360	-377.953819	463.088738	1455.835872	-235.466343	411.668154	1308.448812	-243.216108	500.662624	1116.995222	113.280175	685.967949	937.850157	-23.592783	491.554535	1118.984783	-564.652211	694.756561	930.523394	-458.349508	-109.587618	1202.561200	-229.869581	34.148045	1276.754847	-376.912232	70.283714	1237.776327	-90.538565	68.632782	1196.780464	-363.722132	86.589082	1193.094577	-112.291690	-79.809384	1239.558573	-177.946610	-78.524224	1258.684014	-283.448159	26.407095	1120.426432	-50.327866	-15.005606	1112.369408	-411.346281	170.085306	1060.405711	-57.981002	254.043283	1038.557714	-72.661382	318.572664	982.409891	-73.192360	267.731699	1068.335007	-90.689869	417.331454	891.466015	-111.143510	400.818447	874.932721	-215.280689	322.751139	789.181128	-81.765379	280.095486	712.171668	-91.213196	206.423947	665.758741	-82.346474	292.755721	700.172583	-128.442496	110.981415	572.223401	-73.746951	73.458752	612.765085	-108.860683	148.231624	338.262193	-123.453431	88.796498	396.315651	-52.638055	50.059878	1000.740116	-421.107673	117.396422	943.635341	-424.837426	147.553097	964.317288	-420.390368	147.902918	860.271787	-418.119449	243.892839	714.999435	-388.126784	233.866821	694.840449	-296.550389	215.144474	570.987080	-413.362013	224.920530	487.721612	-393.641742	166.643677	383.639952	-375.399809	225.141056	490.626798	-351.178445	166.727551	266.854605	-396.996551	105.065962	214.216803	-365.044491	391.751197	256.165348	-356.346975	323.021397	205.966687	-413.061561	-258.974503	970.632780	-234.181279	-75.814316	83.356580	-438.491524	-82.812299	79.603709	-40.917294	
1502	7.5100	501.693652	1399.787748	-96.294004	486.744927	1406.697103	-375.574169	463.434272	1457.201944	-233.908812	410.925557	1310.156374	-240.760111	499.546344	1117.064152	113.343762	686.505794	938.671644	-22.032612	491.993248	1118.971510	-564.361528	695.568861	930.874821	-458.508253	-108.200272	1202.871629	-233.431957	37.149671	1274.976648	-380.342661	69.267818	1240.554951	-92.146744	71.128833	1194.829148	-365.705429	86.615104	1195.448196	-114.089001	-78.993122	1240.223447	-181.408378	-76.721380	1258.339064	-287.642689	27.111214	1123.314599	-51.270346	-13.264485	1110.269072	-412.594178	171.655814	1065.869164	-59.126173	256.045461	1045.776156	-73.531476	321.653281	990.883759	-73.722398	269.042908	1075.616192	-91.928740	422.151218	901.100632	-111.684506	405.739424	884.472688	-217.469583	328.610707	798.672160	-82.474903	286.010326	721.672425	-91.727471	212.330638	675.036078	-83.310796	298.604189	709.581204	-129.638285	117.196374	581.157008	-74.071295	72.837038	621.405168	-108.944384	156.400459	347.434463	-123.569246	96.322142	405.124165	-52.805302	48.564257	997.279337	-422.356340	114.058668	938.091226	-426.288304	144.914698	957.892850	-422.012147	141.974942	853.824798	-419.184340	234.964518	707.300949	-389.081998	224.530136	687.518096	-297.445829	206.235057	563.643118	-414.328564	216.380531	480.465895	-394.464981	164.580706	381.220219	-381.987883	217.132868	483.471074	-352.062021	159.156186	259.650534	-397.151978	97.738285	207.217043	-364.620500	384.633498	247.896075	-356.594630	312.883218	204.551706	-423.226147	-258.882871	970.697201	-234.401438	-75.801028	83.359429	-438.499394	-82.826217	79.645452	-40.916156	
1503	7.5150	499.274994	1402.224280	-93.480072	488.867554	1406.059022	-373.166570	463.684428	1458.452122	-232.379514	409.989050	1311.800991	-238.394938	498.334523	1117.048941	113.132841	687.039706	939.480380	-20.427157	492.414061	1119.055102	-564.263242	696.352366	931.222113	-458.742110	-107.248366	1203.280777	-236.408238	40.300038	1273.052057	-383.717131	68.146620	1243.262039	-93.788273	73.627166	1192.929891	-367.529977	86.666182	1197.778259	-115.877535	-78.367988	1240.963854	-185.046525	-74.966170	1257.892251	-291.710562	27.903242	1126.283805	-52.444670	-11.511705	1108.302893	-413.810443	173.169757	1071.482951	-60.307142	257.987896	1053.023112	-74.387690	324.670114	999.314433	-74.413474	270.164170	1083.450967	-91.912816	427.061868	911.166182	-112.641182	411.096233	894.314868	-217.252241	334.242271	808.031089	-83.261988	291.684066	731.298456	-92.602401	218.241757	684.128458	-83.961580	304.232701	718.687902	-130.706071	123.329696	589.786264	-74.487076	72.260028	629.313184	-109.064248	165.102234	356.434695	-123.674161	104.391610	413.384208	-52.952127	47.229559	994.070748	-423.806627	110.914444	932.975355	-427.788409	142.197170	951.677471	-423.205020	136.293972	848.081045	-420.587942	225.820512	700.439313	-390.315177	215.334719	680.398218	-299.409028	197.409554	557.048877	-415.164861	207.894047	473.895435	-395.367215	161.971067	379.022035	-388.065457	209.639215	476.860211	-352.917331	151.200135	252.867540	-396.575445	90.119606	200.922010	-364.330781	377.297062	239.895430	-356.668902	305.234462	197.186152	-423.320356	-258.836284	970.754645	-234.624245	-75.805564	83.376765	-438.515683	-82.797411	79.713558	-40.933362	
1504	7.5200	496.852671	1404.868720	-90.563323	491.031470	1405.279335	-370.723774	463.808379	1459.370581	-230.750341	409.650531	1312.862474	-236.010264	495.883057	1117.533128	112.957697	687.577575	940.456871	-18.787920	492.851953	1119.133884	-564.321205	697.099833	931.558937	-459.047046	-105.980913	1203.384514	-239.776358	43.397710	1271.068938	-386.894703	66.818654	1246.106311	-95.523104	76.001550	1190.848589	-368.872900	86.669901	1199.908203	-117.648592	-77.777856	1241.954842	-188.383081	-73.428369	1257.502476	-295.448863	28.492838	1129.358887	-53.727565	-9.798156	1106.681731	-415.019528	174.644634	1077.156527	-61.451067	259.941984	1060.196434	-75.647347	327.315818	1007.439575	-75.705454	271.361346	1090.631094	-93.493912	431.290207	920.930496	-113.139486	415.824057	903.750386	-218.058456	339.749147	817.301734	-83.924133	297.275470	740.471117	-93.323256	223.958317	693.235395	-84.544493	310.037241	728.038073	-131.130640	129.242114	597.968768	-74.991469	72.025746	636.398342	-109.231560	174.555887	365.417316	-123.886431	113.194808	421.380794	-53.072202	45.888181	991.373872	-425.171694	107.850153	928.603574	-429.469304	139.666328	946.447476	-424.739228	130.933848	842.972994	-422.222322	217.405019	694.351251	-391.478313	207.077458	674.200404	-300.632729	188.614561	551.063030	-415.973918	199.398196	468.007076	-396.130837	158.658739	376.917166	-393.422352	201.703433	471.074756	-353.778780	143.207776	246.702341	-396.026821	82.112483	195.610837	-364.237373	369.657621	232.160782	-356.850782	297.140974	190.045490	-423.355915	-258.859281	970.734808	-234.812533	-75.797900	83.357753	-438.515716	-82.831610	79.777645	-40.953865	
